%
M48
M72
T01C0.01969
T02C0.02000
T03C0.02362
T04C0.03150
T05C0.06250
T06C0.08268
T07C0.09843
T08C0.15748
%
T01
X68095Y72433
X80595Y100933
X92595Y107433
X95595Y117933
X85595Y118933
X85595Y131933
X89595Y141933
X102595Y146933
X108595Y154933
X105595Y165433
X112595Y174433
X117595Y174433
X125595Y157933
X135595Y147433
X131095Y144433
X139095Y137433
X128095Y132933
X123095Y132933
X134595Y124933
X109595Y129433
X109595Y105933
X123095Y74933
X134095Y76433
X112095Y71933
X75595Y173933
X70095Y173933
T02
X134595Y175933
X134595Y181433
X166095Y211683
X178595Y229933
X178595Y235933
X178595Y241933
X177595Y180933
X172595Y180933
T03
X177595Y162933
X154595Y155933
X145595Y150933
X166595Y130933
X182595Y134933
X193595Y113433
X172595Y106933
X175595Y92433
X175595Y87433
X181095Y92433
X146595Y107933
X127595Y100433
X89095Y79933
X73595Y107933
X141595Y238933
X147595Y238933
T04
X141595Y165807
X141595Y157933
X110595Y91433
X102721Y91433
X62595Y92528
X62595Y98433
T05
X64101Y121734
X95606Y159541
X64101Y171049
T06
X57438Y189799
X79853Y140637
X120430Y110272
X148409Y141420
X187359Y194917
X187359Y78776
T07
X59187Y80475
T08
X157890Y198734
M30
